<svg width="138" height="28" viewBox="0 0 138 28" fill="none" xmlns="http://www.w3.org/2000/svg">
<path d="M0.6875 28L0.687499 5.6L6.2875 5.6L6.2875 28L0.6875 28Z" fill="#4299E1"/>
<path d="M0.6875 0H28.6875V5.6H0.6875V0Z" fill="#ECC94B"/>
<path fill-rule="evenodd" clip-rule="evenodd" d="M28.6875 21L28.6875 28L23.0875 28L23.0875 21L28.6875 21Z" fill="url(#paint0_linear_4_580)"/>
<path fill-rule="evenodd" clip-rule="evenodd" d="M0.687354 21L0.687354 28L6.28735 28L6.28735 21L0.687354 21Z" fill="url(#paint1_linear_4_580)"/>
<path d="M0.6875 22.4L28.6875 22.4V28L0.6875 28L0.6875 22.4Z" fill="#48BB78"/>
<path d="M23.0876 28L23.0876 3.8147e-06L28.6876 3.56991e-06L28.6876 28L23.0876 28Z" fill="#9F7AEA"/>
<path d="M46.5995 25.84C45.1062 25.84 43.6982 25.5627 42.3755 25.008C41.0528 24.432 39.8902 23.632 38.8875 22.608C37.8848 21.5627 37.0955 20.336 36.5195 18.928C35.9648 17.4987 35.6875 15.9093 35.6875 14.16C35.6875 12.5813 35.9755 11.1093 36.5515 9.744C37.1275 8.37867 37.9275 7.17333 38.9515 6.128C39.9755 5.08267 41.1702 4.272 42.5355 3.696C43.9222 3.09867 45.4155 2.8 47.0155 2.8C49.1062 2.8 50.9515 3.248 52.5515 4.144C54.1515 5.04 55.3355 6.24533 56.1035 7.76L52.1995 10.704C51.6875 9.70133 50.9408 8.912 49.9595 8.336C48.9995 7.76 47.9542 7.472 46.8235 7.472C45.9702 7.472 45.1808 7.65333 44.4555 8.016C43.7515 8.35733 43.1328 8.848 42.5995 9.488C42.0875 10.1067 41.6928 10.832 41.4155 11.664C41.1382 12.496 40.9995 13.392 40.9995 14.352C40.9995 15.3333 41.1488 16.24 41.4475 17.072C41.7462 17.904 42.1622 18.6293 42.6955 19.248C43.2288 19.8453 43.8582 20.3147 44.5835 20.656C45.3302 20.9973 46.1515 21.168 47.0475 21.168C48.1355 21.168 49.1702 20.9013 50.1515 20.368C51.1542 19.8133 52.0715 19.0027 52.9035 17.936V23.12C51.0902 24.9333 48.9888 25.84 46.5995 25.84ZM52.5835 17.616H48.1675V13.808H56.9355V25.68H52.5835V17.616Z" fill="white"/>
<path d="M60.309 25.68V8.88H65.429V25.68H60.309ZM60.309 6.96V2.32H65.429V6.96H60.309Z" fill="white"/>
<path d="M70.342 25.68V14.128H68.198V10.256H70.342V8.88C70.342 7.472 70.5767 6.256 71.046 5.232C71.5367 4.208 72.2193 3.41867 73.094 2.864C73.99 2.288 75.0247 2 76.198 2C76.9233 2 77.6487 2.08533 78.374 2.256C79.0993 2.42667 79.8353 2.672 80.582 2.992L79.654 6.832C79.334 6.68267 78.9607 6.56533 78.534 6.48C78.1073 6.37333 77.7127 6.32 77.35 6.32C76.7313 6.32 76.262 6.52267 75.942 6.928C75.622 7.312 75.462 7.89867 75.462 8.688V10.256H79.366V14.128H75.462V25.68H70.342Z" fill="white"/>
<path d="M100.989 7.568H94.0775V25.68H88.8295V7.568H81.8855V2.96H100.989V7.568Z" fill="white"/>
<path d="M108.519 26C107.09 26 105.81 25.7653 104.679 25.296C103.57 24.8267 102.631 24.1867 101.863 23.376C101.095 22.5653 100.508 21.6373 100.103 20.592C99.719 19.5467 99.527 18.448 99.527 17.296C99.527 16.1227 99.719 15.0133 100.103 13.968C100.508 12.9227 101.095 11.9947 101.863 11.184C102.631 10.3733 103.57 9.73333 104.679 9.264C105.81 8.79467 107.09 8.56 108.519 8.56C109.948 8.56 111.218 8.79467 112.327 9.264C113.436 9.73333 114.375 10.3733 115.143 11.184C115.911 11.9947 116.498 12.9227 116.903 13.968C117.308 15.0133 117.511 16.1227 117.511 17.296C117.511 18.448 117.308 19.5467 116.903 20.592C116.498 21.6373 115.911 22.5653 115.143 23.376C114.375 24.1867 113.436 24.8267 112.327 25.296C111.218 25.7653 109.948 26 108.519 26ZM104.775 17.296C104.775 18.1707 104.935 18.9387 105.255 19.6C105.596 20.2613 106.044 20.7733 106.599 21.136C107.154 21.4987 107.794 21.68 108.519 21.68C109.223 21.68 109.852 21.4987 110.407 21.136C110.983 20.752 111.431 20.2293 111.751 19.568C112.071 18.9067 112.231 18.1493 112.231 17.296C112.231 16.4213 112.071 15.6533 111.751 14.992C111.431 14.3307 110.983 13.8187 110.407 13.456C109.852 13.0933 109.223 12.912 108.519 12.912C107.794 12.912 107.154 13.0933 106.599 13.456C106.044 13.8187 105.596 14.3307 105.255 14.992C104.935 15.6533 104.775 16.4213 104.775 17.296Z" fill="white"/>
<path d="M131.666 25.68L127.282 18.96L125.49 20.784V25.68H120.37V2.32H125.49V15.824L131.186 8.88H136.594L130.546 16.112L137.106 25.68H131.666Z" fill="white"/>
<defs>
<linearGradient id="paint0_linear_4_580" x1="25.8875" y1="35" x2="25.8875" y2="21" gradientUnits="userSpaceOnUse">
<stop stop-color="#121413"/>
<stop offset="1" stop-opacity="0"/>
</linearGradient>
<linearGradient id="paint1_linear_4_580" x1="3.48735" y1="35" x2="3.48735" y2="21" gradientUnits="userSpaceOnUse">
<stop stop-color="#121413"/>
<stop offset="1" stop-opacity="0"/>
</linearGradient>
</defs>
</svg>
